<svg width="40" height="40" viewBox="0 0 40 40" xmlns="http://www.w3.org/2000/svg">
    <path d="M31.875 14.375h-5v-.625a6.875 6.875 0 1 0-13.75 0v.625h-5A.625.625 0 0 0 7.5 15v14.375a3.75 3.75 0 0 0 3.75 3.75h17.5a3.75 3.75 0 0 0 3.75-3.75V15a.625.625 0 0 0-.625-.625zm-17.5-.625a5.625 5.625 0 0 1 11.25 0v.625h-11.25v-.625zM31.25 29.375a2.5 2.5 0 0 1-2.5 2.5h-17.5a2.5 2.5 0 0 1-2.5-2.5v-13.75h4.375V17.5a.625.625 0 1 0 1.25 0v-1.875h11.25V17.5a.625.625 0 1 0 1.25 0v-1.875h4.375v13.75z" fill="#000" fill-rule="nonzero"/>
</svg>
