<svg width="36" height="36" viewBox="0 0 36 36" xmlns="http://www.w3.org/2000/svg">
    <path d="M20 10a8.75 8.75 0 0 1 8.75 8.75v8.212a2.5 2.5 0 0 1 1.875 2.413v2.5c0 .345-.28.625-.625.625H10a.625.625 0 0 1-.625-.625v-2.5a2.5 2.5 0 0 1 1.875-2.413V18.75A8.75 8.75 0 0 1 20 10zm8.125 18.125h-16.25c-.69 0-1.25.56-1.25 1.25v1.875h18.75v-1.875c0-.69-.56-1.25-1.25-1.25zM20 11.25a7.5 7.5 0 0 0-7.5 7.5v8.125h15V18.75a7.5 7.5 0 0 0-7.5-7.5zM9.375 18.125a.625.625 0 1 1 0 1.25h-2.5a.625.625 0 1 1 0-1.25h2.5zm23.75 0a.625.625 0 1 1 0 1.25h-2.5a.625.625 0 1 1 0-1.25h2.5zm-12.266-4.052a.625.625 0 0 1 .547-.117 5 5 0 0 1 3.556 4.107.625.625 0 0 1-.625.706l-.102-.008a.625.625 0 0 1-.523-.53 3.75 3.75 0 0 0-2.656-3.056.625.625 0 0 1-.431-.594.625.625 0 0 1 .234-.508zm8.871-5.046a.625.625 0 0 1 0 .884l-1.768 1.768a.625.625 0 0 1-.883-.884l1.767-1.768a.625.625 0 0 1 .884 0zm-18.573-.003 1.767 1.768a.625.625 0 0 1-.883.884l-1.768-1.768a.625.625 0 1 1 .884-.884zM20 5c.345 0 .625.28.625.625v2.5a.625.625 0 1 1-1.25 0v-2.5c0-.345.28-.625.625-.625z" fill="#1C1C1C" fill-rule="nonzero"/>
</svg>
